_________________________  Visit us at _________________________
   
http://p2pdl.com  ____________________________  http://p2pdl.com


1920 Evil Returns 2012 DVDRip x264 AAC - ViZNU [P2PDL]
 
http://www.imdb.com/title/tt2222550/
Horror
Director: Bhushan Patel
Stars: Tia Bajpai, Vidya Malvade and Aftab Shivdasani.
This story revolves around a famous poet who meets a woman who is in trouble. The woman soon gets
possessed by devil and goes out of control. Now the question remains that what is the relation that
poet shares with her which compelled him to go to any extent to save her, why she was possessed by
devil and who is the devil.

General
Movie name                     : 1920 Evil Returns 2012
Format                         : MPEG-4
Format profile                 : Base Media
Codec ID                       : isom
File size                      : 403 MiB
Duration                       : 1h 59mn
Overall bit rate mode          : Variable
Overall bit rate               : 472 Kbps
Encoded date                   : UTC 2012-12-30 07:45:22
Tagged date                    : UTC 2012-12-30 07:45:22

Video
ID                             : 1
Format                         : AVC
Format/Info                    : Advanced Video Codec
Duration                       : 1h 59mn
Bit rate                       : 436 Kbps
Width                          : 608 pixels
Height                         : 256 pixels
Stream size                    : 372 MiB (92%)
Writing library                : x264 core 129 r2230
Source                         : DVD9 NTSC

Audio
ID                             : 2
Format                         : AAC
Format/Info                    : Advanced Audio Codec
Format profile                 : LC
Codec ID                       : 40
Duration                       : 1h 59mn
Bit rate mode                  : Variable
Bit rate                       : 32.0 Kbps
Maximum bit rate               : 37.7 Kbps
Channel(s)                     : 2 channels
Channel positions              : Front: L R
Sampling rate                  : 44.1 KHz
Stream size                    : 27.3 MiB (7%)
Language                       : Hindi

Subtitle                       : N/a


Screens:
 
http://www.shotpix.com/images/86747276657722218031.png 
http://www.shotpix.com/images/28302550578619613949.png 
http://www.shotpix.com/images/10362598582190903346.png 
http://www.shotpix.com/images/62755987824531145852.png 
http://www.shotpix.com/images/97484364190462377310.png 
http://www.shotpix.com/images/82917291767974701015.png


----------------------------------------------------------------------------------------------------


Recommend to you to use latest version of VLC player. Install K-Lite Codec Pack or shark007 codecs
in case of any kind of problem in playback (For non-VLC Media Player users). Alternatively, install
Core AVC codecs, the fastest decoder that there is coupled with Community Center Codec Pack and play
on Windows Media Player Classic. Check sample to be sure.
Enjoy!

Greets to: Vitamin_X, a2zRG, srkfan, staff members at ExtraTorrent, TPB,KAT, 1337x, PublicHD, Ahashare,
BTScene, SilverTorrent, TorrentMafia, P2PDL, and all others.

Encoder Notes: Looking For Early Access To Anything You Can Provide DVDScr, R5, DVDR, BluRay, Direct
Audio, Early Music Releases, Seedboxes, Dedicated Servers anything u can provide, Advance / Promo CDs/
DVDs. If You Got anything to offer contact me at "prg@hush.com".

Facebook Fan Page: www . facebook . com / p2pdl